<mxfile host="Electron" agent="Mozilla/5.0 (Windows NT 10.0; Win64; x64) AppleWebKit/537.36 (KHTML, like Gecko) draw.io/26.2.2 Chrome/134.0.6998.178 Electron/35.1.2 Safari/537.36" version="26.2.2">
  <diagram name="Page-1" id="PflI_f_OkBUchqKnuyAb">
    <mxGraphModel dx="3432" dy="2260" grid="1" gridSize="10" guides="1" tooltips="1" connect="1" arrows="1" fold="1" page="1" pageScale="1" pageWidth="850" pageHeight="1100" math="0" shadow="0">
      <root>
        <mxCell id="0" />
        <mxCell id="1" parent="0" />
        <mxCell id="i1pAdPd0ReRX1gmd931n-1" value="Pencatatan Transaksi" style="swimlane;childLayout=stackLayout;resizeParent=1;resizeParentMax=0;startSize=20;html=1;" parent="1" vertex="1">
          <mxGeometry x="20" y="20" width="380" height="760" as="geometry" />
        </mxCell>
        <mxCell id="i1pAdPd0ReRX1gmd931n-2" value="Apoteker" style="swimlane;startSize=20;html=1;" parent="i1pAdPd0ReRX1gmd931n-1" vertex="1">
          <mxGeometry y="20" width="190" height="740" as="geometry" />
        </mxCell>
        <mxCell id="i1pAdPd0ReRX1gmd931n-7" style="edgeStyle=orthogonalEdgeStyle;rounded=0;orthogonalLoop=1;jettySize=auto;html=1;exitX=0.5;exitY=1;exitDx=0;exitDy=0;entryX=0.5;entryY=0;entryDx=0;entryDy=0;" parent="i1pAdPd0ReRX1gmd931n-2" source="i1pAdPd0ReRX1gmd931n-5" target="i1pAdPd0ReRX1gmd931n-6" edge="1">
          <mxGeometry relative="1" as="geometry" />
        </mxCell>
        <mxCell id="i1pAdPd0ReRX1gmd931n-5" value="" style="ellipse;whiteSpace=wrap;html=1;aspect=fixed;" parent="i1pAdPd0ReRX1gmd931n-2" vertex="1">
          <mxGeometry x="80" y="30" width="30" height="30" as="geometry" />
        </mxCell>
        <mxCell id="i1pAdPd0ReRX1gmd931n-6" value="Login" style="rounded=1;whiteSpace=wrap;html=1;" parent="i1pAdPd0ReRX1gmd931n-2" vertex="1">
          <mxGeometry x="65" y="80" width="60" height="20" as="geometry" />
        </mxCell>
        <mxCell id="i1pAdPd0ReRX1gmd931n-26" style="edgeStyle=orthogonalEdgeStyle;rounded=0;orthogonalLoop=1;jettySize=auto;html=1;entryX=0.5;entryY=0;entryDx=0;entryDy=0;" parent="i1pAdPd0ReRX1gmd931n-2" source="i1pAdPd0ReRX1gmd931n-19" target="i1pAdPd0ReRX1gmd931n-23" edge="1">
          <mxGeometry relative="1" as="geometry" />
        </mxCell>
        <mxCell id="i1pAdPd0ReRX1gmd931n-19" value="Akses menu &quot;Transakasi Penggunaan obat&quot;" style="rounded=1;whiteSpace=wrap;html=1;" parent="i1pAdPd0ReRX1gmd931n-2" vertex="1">
          <mxGeometry x="44.38" y="246" width="101.25" height="63.75" as="geometry" />
        </mxCell>
        <mxCell id="i1pAdPd0ReRX1gmd931n-22" value="" style="edgeStyle=orthogonalEdgeStyle;rounded=0;orthogonalLoop=1;jettySize=auto;html=1;" parent="i1pAdPd0ReRX1gmd931n-2" source="i1pAdPd0ReRX1gmd931n-23" target="i1pAdPd0ReRX1gmd931n-24" edge="1">
          <mxGeometry relative="1" as="geometry" />
        </mxCell>
        <mxCell id="i1pAdPd0ReRX1gmd931n-23" value="Pilih obat, jumlah, dan input data penerima (misalnya pasien atau ruangan)" style="rounded=1;whiteSpace=wrap;html=1;" parent="i1pAdPd0ReRX1gmd931n-2" vertex="1">
          <mxGeometry x="44.38" y="360" width="101.25" height="80" as="geometry" />
        </mxCell>
        <mxCell id="i1pAdPd0ReRX1gmd931n-24" value="Klik &quot;Simpan&quot;" style="rounded=1;whiteSpace=wrap;html=1;" parent="i1pAdPd0ReRX1gmd931n-2" vertex="1">
          <mxGeometry x="49.690000000000005" y="480" width="90.62" height="30" as="geometry" />
        </mxCell>
        <mxCell id="i1pAdPd0ReRX1gmd931n-33" value="" style="ellipse;whiteSpace=wrap;html=1;aspect=fixed;" parent="i1pAdPd0ReRX1gmd931n-2" vertex="1">
          <mxGeometry x="80.00999999999999" y="700" width="30" height="30" as="geometry" />
        </mxCell>
        <mxCell id="i1pAdPd0ReRX1gmd931n-36" style="edgeStyle=orthogonalEdgeStyle;rounded=0;orthogonalLoop=1;jettySize=auto;html=1;entryX=0.5;entryY=0;entryDx=0;entryDy=0;" parent="i1pAdPd0ReRX1gmd931n-2" source="i1pAdPd0ReRX1gmd931n-34" target="i1pAdPd0ReRX1gmd931n-33" edge="1">
          <mxGeometry relative="1" as="geometry" />
        </mxCell>
        <mxCell id="i1pAdPd0ReRX1gmd931n-34" value="Logout" style="rounded=1;whiteSpace=wrap;html=1;" parent="i1pAdPd0ReRX1gmd931n-2" vertex="1">
          <mxGeometry x="66.5" y="623" width="57.5" height="28" as="geometry" />
        </mxCell>
        <mxCell id="i1pAdPd0ReRX1gmd931n-3" value="system" style="swimlane;startSize=20;html=1;" parent="i1pAdPd0ReRX1gmd931n-1" vertex="1">
          <mxGeometry x="190" y="20" width="190" height="740" as="geometry" />
        </mxCell>
        <mxCell id="i1pAdPd0ReRX1gmd931n-10" value="" style="edgeStyle=orthogonalEdgeStyle;rounded=0;orthogonalLoop=1;jettySize=auto;html=1;entryX=0.5;entryY=0;entryDx=0;entryDy=0;" parent="i1pAdPd0ReRX1gmd931n-3" source="i1pAdPd0ReRX1gmd931n-11" target="i1pAdPd0ReRX1gmd931n-15" edge="1">
          <mxGeometry relative="1" as="geometry">
            <mxPoint x="95" y="230" as="targetPoint" />
          </mxGeometry>
        </mxCell>
        <mxCell id="i1pAdPd0ReRX1gmd931n-11" value="" style="verticalLabelPosition=bottom;verticalAlign=top;html=1;shape=mxgraph.flowchart.collate;" parent="i1pAdPd0ReRX1gmd931n-3" vertex="1">
          <mxGeometry x="80" y="135" width="30" height="30" as="geometry" />
        </mxCell>
        <mxCell id="i1pAdPd0ReRX1gmd931n-12" value="Memverifikasi level akses" style="rounded=1;whiteSpace=wrap;html=1;" parent="i1pAdPd0ReRX1gmd931n-3" vertex="1">
          <mxGeometry x="43.75" y="70" width="102.5" height="40" as="geometry" />
        </mxCell>
        <mxCell id="i1pAdPd0ReRX1gmd931n-13" style="edgeStyle=orthogonalEdgeStyle;rounded=0;orthogonalLoop=1;jettySize=auto;html=1;exitX=0.5;exitY=1;exitDx=0;exitDy=0;entryX=0.5;entryY=0;entryDx=0;entryDy=0;entryPerimeter=0;" parent="i1pAdPd0ReRX1gmd931n-3" source="i1pAdPd0ReRX1gmd931n-12" target="i1pAdPd0ReRX1gmd931n-11" edge="1">
          <mxGeometry relative="1" as="geometry" />
        </mxCell>
        <mxCell id="i1pAdPd0ReRX1gmd931n-14" style="edgeStyle=orthogonalEdgeStyle;rounded=0;orthogonalLoop=1;jettySize=auto;html=1;exitX=0.5;exitY=1;exitDx=0;exitDy=0;entryX=0.5;entryY=0;entryDx=0;entryDy=0;" parent="i1pAdPd0ReRX1gmd931n-3" source="i1pAdPd0ReRX1gmd931n-15" target="i1pAdPd0ReRX1gmd931n-16" edge="1">
          <mxGeometry relative="1" as="geometry" />
        </mxCell>
        <mxCell id="i1pAdPd0ReRX1gmd931n-15" value="Level akses diverifikasi sebagai Apoteker" style="rounded=1;whiteSpace=wrap;html=1;" parent="i1pAdPd0ReRX1gmd931n-3" vertex="1">
          <mxGeometry x="43.75" y="185" width="101.25" height="50" as="geometry" />
        </mxCell>
        <mxCell id="i1pAdPd0ReRX1gmd931n-16" value="Menampilkan Dashboard" style="rounded=1;whiteSpace=wrap;html=1;" parent="i1pAdPd0ReRX1gmd931n-3" vertex="1">
          <mxGeometry x="43.75" y="260" width="101.25" height="35" as="geometry" />
        </mxCell>
        <mxCell id="i1pAdPd0ReRX1gmd931n-27" value="" style="edgeStyle=orthogonalEdgeStyle;rounded=0;orthogonalLoop=1;jettySize=auto;html=1;entryX=0.5;entryY=0;entryDx=0;entryDy=0;" parent="i1pAdPd0ReRX1gmd931n-3" source="i1pAdPd0ReRX1gmd931n-28" target="i1pAdPd0ReRX1gmd931n-31" edge="1">
          <mxGeometry relative="1" as="geometry">
            <mxPoint x="95" y="657" as="targetPoint" />
          </mxGeometry>
        </mxCell>
        <mxCell id="i1pAdPd0ReRX1gmd931n-28" value="" style="verticalLabelPosition=bottom;verticalAlign=top;html=1;shape=mxgraph.flowchart.collate;" parent="i1pAdPd0ReRX1gmd931n-3" vertex="1">
          <mxGeometry x="80" y="557" width="30" height="30" as="geometry" />
        </mxCell>
        <mxCell id="i1pAdPd0ReRX1gmd931n-29" value="sistem mengurangi stok secara otomatis dan menyimpan riwayat transaksi" style="rounded=1;whiteSpace=wrap;html=1;" parent="i1pAdPd0ReRX1gmd931n-3" vertex="1">
          <mxGeometry x="43.75" y="457" width="102.5" height="75" as="geometry" />
        </mxCell>
        <mxCell id="i1pAdPd0ReRX1gmd931n-30" style="edgeStyle=orthogonalEdgeStyle;rounded=0;orthogonalLoop=1;jettySize=auto;html=1;exitX=0.5;exitY=1;exitDx=0;exitDy=0;entryX=0.5;entryY=0;entryDx=0;entryDy=0;entryPerimeter=0;" parent="i1pAdPd0ReRX1gmd931n-3" source="i1pAdPd0ReRX1gmd931n-29" target="i1pAdPd0ReRX1gmd931n-28" edge="1">
          <mxGeometry relative="1" as="geometry" />
        </mxCell>
        <mxCell id="i1pAdPd0ReRX1gmd931n-31" value="Menampilkan nomor transaksi dan ringkasan" style="rounded=1;whiteSpace=wrap;html=1;" parent="i1pAdPd0ReRX1gmd931n-3" vertex="1">
          <mxGeometry x="43.75" y="612" width="101.25" height="50" as="geometry" />
        </mxCell>
        <mxCell id="i1pAdPd0ReRX1gmd931n-17" style="edgeStyle=orthogonalEdgeStyle;rounded=0;orthogonalLoop=1;jettySize=auto;html=1;exitX=1;exitY=0.5;exitDx=0;exitDy=0;entryX=0;entryY=0.5;entryDx=0;entryDy=0;" parent="i1pAdPd0ReRX1gmd931n-1" source="i1pAdPd0ReRX1gmd931n-6" target="i1pAdPd0ReRX1gmd931n-12" edge="1">
          <mxGeometry relative="1" as="geometry" />
        </mxCell>
        <mxCell id="i1pAdPd0ReRX1gmd931n-25" style="edgeStyle=orthogonalEdgeStyle;rounded=0;orthogonalLoop=1;jettySize=auto;html=1;exitX=0;exitY=0.5;exitDx=0;exitDy=0;entryX=1;entryY=0.5;entryDx=0;entryDy=0;" parent="i1pAdPd0ReRX1gmd931n-1" source="i1pAdPd0ReRX1gmd931n-16" target="i1pAdPd0ReRX1gmd931n-19" edge="1">
          <mxGeometry relative="1" as="geometry" />
        </mxCell>
        <mxCell id="i1pAdPd0ReRX1gmd931n-32" style="edgeStyle=orthogonalEdgeStyle;rounded=0;orthogonalLoop=1;jettySize=auto;html=1;exitX=1;exitY=0.5;exitDx=0;exitDy=0;entryX=0;entryY=0.5;entryDx=0;entryDy=0;" parent="i1pAdPd0ReRX1gmd931n-1" source="i1pAdPd0ReRX1gmd931n-24" target="i1pAdPd0ReRX1gmd931n-29" edge="1">
          <mxGeometry relative="1" as="geometry" />
        </mxCell>
        <mxCell id="i1pAdPd0ReRX1gmd931n-35" value="" style="edgeStyle=orthogonalEdgeStyle;rounded=0;orthogonalLoop=1;jettySize=auto;html=1;" parent="i1pAdPd0ReRX1gmd931n-1" source="i1pAdPd0ReRX1gmd931n-31" target="i1pAdPd0ReRX1gmd931n-34" edge="1">
          <mxGeometry relative="1" as="geometry" />
        </mxCell>
        <mxCell id="i1pAdPd0ReRX1gmd931n-37" value="" style="whiteSpace=wrap;html=1;aspect=fixed;" parent="1" vertex="1">
          <mxGeometry x="490" y="40" width="280" height="280" as="geometry" />
        </mxCell>
        <mxCell id="eWJayuSbDQP7VDXV3mLt-9" style="rounded=0;orthogonalLoop=1;jettySize=auto;html=1;exitX=0.5;exitY=0.5;exitDx=0;exitDy=0;exitPerimeter=0;" parent="1" source="i1pAdPd0ReRX1gmd931n-38" target="eWJayuSbDQP7VDXV3mLt-2" edge="1">
          <mxGeometry relative="1" as="geometry" />
        </mxCell>
        <mxCell id="eWJayuSbDQP7VDXV3mLt-10" style="rounded=0;orthogonalLoop=1;jettySize=auto;html=1;exitX=0.5;exitY=0.5;exitDx=0;exitDy=0;exitPerimeter=0;" parent="1" source="i1pAdPd0ReRX1gmd931n-38" target="eWJayuSbDQP7VDXV3mLt-3" edge="1">
          <mxGeometry relative="1" as="geometry" />
        </mxCell>
        <mxCell id="i1pAdPd0ReRX1gmd931n-38" value="Admin" style="shape=umlActor;verticalLabelPosition=bottom;verticalAlign=top;html=1;outlineConnect=0;" parent="1" vertex="1">
          <mxGeometry x="790" y="150" width="30" height="60" as="geometry" />
        </mxCell>
        <mxCell id="eWJayuSbDQP7VDXV3mLt-5" style="rounded=0;orthogonalLoop=1;jettySize=auto;html=1;exitX=0.5;exitY=0.5;exitDx=0;exitDy=0;exitPerimeter=0;entryX=0;entryY=0.5;entryDx=0;entryDy=0;" parent="1" source="i1pAdPd0ReRX1gmd931n-39" target="eWJayuSbDQP7VDXV3mLt-2" edge="1">
          <mxGeometry relative="1" as="geometry" />
        </mxCell>
        <mxCell id="i1pAdPd0ReRX1gmd931n-39" value="Staff gudang" style="shape=umlActor;verticalLabelPosition=bottom;verticalAlign=top;html=1;outlineConnect=0;" parent="1" vertex="1">
          <mxGeometry x="440" y="105" width="20" height="40" as="geometry" />
        </mxCell>
        <mxCell id="eWJayuSbDQP7VDXV3mLt-6" style="rounded=0;orthogonalLoop=1;jettySize=auto;html=1;exitX=0.5;exitY=0.5;exitDx=0;exitDy=0;exitPerimeter=0;" parent="1" source="i1pAdPd0ReRX1gmd931n-40" target="eWJayuSbDQP7VDXV3mLt-3" edge="1">
          <mxGeometry relative="1" as="geometry" />
        </mxCell>
        <mxCell id="i1pAdPd0ReRX1gmd931n-40" value="Apoteker" style="shape=umlActor;verticalLabelPosition=bottom;verticalAlign=top;html=1;outlineConnect=0;" parent="1" vertex="1">
          <mxGeometry x="440" y="215" width="20" height="40" as="geometry" />
        </mxCell>
        <mxCell id="eWJayuSbDQP7VDXV3mLt-2" value="Catat transaksi" style="ellipse;whiteSpace=wrap;html=1;" parent="1" vertex="1">
          <mxGeometry x="590" y="132.5" width="70" height="40" as="geometry" />
        </mxCell>
        <mxCell id="eWJayuSbDQP7VDXV3mLt-3" value="Lihat Transaksi" style="ellipse;whiteSpace=wrap;html=1;" parent="1" vertex="1">
          <mxGeometry x="590" y="187.5" width="70" height="40" as="geometry" />
        </mxCell>
        <mxCell id="eWJayuSbDQP7VDXV3mLt-7" style="rounded=0;orthogonalLoop=1;jettySize=auto;html=1;exitX=0.5;exitY=0.5;exitDx=0;exitDy=0;exitPerimeter=0;entryX=0.009;entryY=0.63;entryDx=0;entryDy=0;entryPerimeter=0;" parent="1" source="i1pAdPd0ReRX1gmd931n-40" target="eWJayuSbDQP7VDXV3mLt-2" edge="1">
          <mxGeometry relative="1" as="geometry" />
        </mxCell>
        <mxCell id="eWJayuSbDQP7VDXV3mLt-8" style="rounded=0;orthogonalLoop=1;jettySize=auto;html=1;exitX=0.5;exitY=0.5;exitDx=0;exitDy=0;exitPerimeter=0;entryX=0;entryY=0.313;entryDx=0;entryDy=0;entryPerimeter=0;" parent="1" source="i1pAdPd0ReRX1gmd931n-39" target="eWJayuSbDQP7VDXV3mLt-3" edge="1">
          <mxGeometry relative="1" as="geometry" />
        </mxCell>
        <mxCell id="eWJayuSbDQP7VDXV3mLt-11" value="User" style="swimlane;fontStyle=1;align=center;verticalAlign=top;childLayout=stackLayout;horizontal=1;startSize=26;horizontalStack=0;resizeParent=1;resizeParentMax=0;resizeLast=0;collapsible=1;marginBottom=0;whiteSpace=wrap;html=1;" parent="1" vertex="1">
          <mxGeometry x="640" y="390" width="160" height="216" as="geometry" />
        </mxCell>
        <mxCell id="eWJayuSbDQP7VDXV3mLt-12" value="- idUser&lt;span style=&quot;white-space: pre;&quot;&gt;&#x9;&lt;/span&gt;: int" style="text;strokeColor=none;fillColor=none;align=left;verticalAlign=top;spacingLeft=4;spacingRight=4;overflow=hidden;rotatable=0;points=[[0,0.5],[1,0.5]];portConstraint=eastwest;whiteSpace=wrap;html=1;" parent="eWJayuSbDQP7VDXV3mLt-11" vertex="1">
          <mxGeometry y="26" width="160" height="26" as="geometry" />
        </mxCell>
        <mxCell id="eWJayuSbDQP7VDXV3mLt-17" value="- nama&lt;span style=&quot;white-space: pre;&quot;&gt;&#x9;&lt;/span&gt;: string" style="text;strokeColor=none;fillColor=none;align=left;verticalAlign=top;spacingLeft=4;spacingRight=4;overflow=hidden;rotatable=0;points=[[0,0.5],[1,0.5]];portConstraint=eastwest;whiteSpace=wrap;html=1;" parent="eWJayuSbDQP7VDXV3mLt-11" vertex="1">
          <mxGeometry y="52" width="160" height="26" as="geometry" />
        </mxCell>
        <mxCell id="eWJayuSbDQP7VDXV3mLt-16" value="- username : string" style="text;strokeColor=none;fillColor=none;align=left;verticalAlign=top;spacingLeft=4;spacingRight=4;overflow=hidden;rotatable=0;points=[[0,0.5],[1,0.5]];portConstraint=eastwest;whiteSpace=wrap;html=1;" parent="eWJayuSbDQP7VDXV3mLt-11" vertex="1">
          <mxGeometry y="78" width="160" height="26" as="geometry" />
        </mxCell>
        <mxCell id="eWJayuSbDQP7VDXV3mLt-15" value="- password : string" style="text;strokeColor=none;fillColor=none;align=left;verticalAlign=top;spacingLeft=4;spacingRight=4;overflow=hidden;rotatable=0;points=[[0,0.5],[1,0.5]];portConstraint=eastwest;whiteSpace=wrap;html=1;" parent="eWJayuSbDQP7VDXV3mLt-11" vertex="1">
          <mxGeometry y="104" width="160" height="26" as="geometry" />
        </mxCell>
        <mxCell id="eWJayuSbDQP7VDXV3mLt-18" value="- role&lt;span style=&quot;white-space: pre;&quot;&gt;&#x9;&lt;/span&gt;: string" style="text;strokeColor=none;fillColor=none;align=left;verticalAlign=top;spacingLeft=4;spacingRight=4;overflow=hidden;rotatable=0;points=[[0,0.5],[1,0.5]];portConstraint=eastwest;whiteSpace=wrap;html=1;" parent="eWJayuSbDQP7VDXV3mLt-11" vertex="1">
          <mxGeometry y="130" width="160" height="26" as="geometry" />
        </mxCell>
        <mxCell id="eWJayuSbDQP7VDXV3mLt-13" value="" style="line;strokeWidth=1;fillColor=none;align=left;verticalAlign=middle;spacingTop=-1;spacingLeft=3;spacingRight=3;rotatable=0;labelPosition=right;points=[];portConstraint=eastwest;strokeColor=inherit;" parent="eWJayuSbDQP7VDXV3mLt-11" vertex="1">
          <mxGeometry y="156" width="160" height="8" as="geometry" />
        </mxCell>
        <mxCell id="eWJayuSbDQP7VDXV3mLt-19" value="+ login()" style="text;strokeColor=none;fillColor=none;align=left;verticalAlign=top;spacingLeft=4;spacingRight=4;overflow=hidden;rotatable=0;points=[[0,0.5],[1,0.5]];portConstraint=eastwest;whiteSpace=wrap;html=1;" parent="eWJayuSbDQP7VDXV3mLt-11" vertex="1">
          <mxGeometry y="164" width="160" height="26" as="geometry" />
        </mxCell>
        <mxCell id="eWJayuSbDQP7VDXV3mLt-14" value="+ logout()" style="text;strokeColor=none;fillColor=none;align=left;verticalAlign=top;spacingLeft=4;spacingRight=4;overflow=hidden;rotatable=0;points=[[0,0.5],[1,0.5]];portConstraint=eastwest;whiteSpace=wrap;html=1;" parent="eWJayuSbDQP7VDXV3mLt-11" vertex="1">
          <mxGeometry y="190" width="160" height="26" as="geometry" />
        </mxCell>
        <mxCell id="eWJayuSbDQP7VDXV3mLt-20" value="Obat" style="swimlane;fontStyle=1;align=center;verticalAlign=top;childLayout=stackLayout;horizontal=1;startSize=26;horizontalStack=0;resizeParent=1;resizeParentMax=0;resizeLast=0;collapsible=1;marginBottom=0;whiteSpace=wrap;html=1;" parent="1" vertex="1">
          <mxGeometry x="460" y="440" width="160" height="190" as="geometry" />
        </mxCell>
        <mxCell id="eWJayuSbDQP7VDXV3mLt-21" value="- idObat&lt;span style=&quot;white-space: pre;&quot;&gt;&#x9;&lt;/span&gt;: int" style="text;strokeColor=none;fillColor=none;align=left;verticalAlign=top;spacingLeft=4;spacingRight=4;overflow=hidden;rotatable=0;points=[[0,0.5],[1,0.5]];portConstraint=eastwest;whiteSpace=wrap;html=1;" parent="eWJayuSbDQP7VDXV3mLt-20" vertex="1">
          <mxGeometry y="26" width="160" height="26" as="geometry" />
        </mxCell>
        <mxCell id="eWJayuSbDQP7VDXV3mLt-22" value="- nama&lt;span style=&quot;white-space: pre;&quot;&gt;&#x9;&lt;/span&gt;: string" style="text;strokeColor=none;fillColor=none;align=left;verticalAlign=top;spacingLeft=4;spacingRight=4;overflow=hidden;rotatable=0;points=[[0,0.5],[1,0.5]];portConstraint=eastwest;whiteSpace=wrap;html=1;" parent="eWJayuSbDQP7VDXV3mLt-20" vertex="1">
          <mxGeometry y="52" width="160" height="26" as="geometry" />
        </mxCell>
        <mxCell id="eWJayuSbDQP7VDXV3mLt-23" value="- kode&lt;span style=&quot;white-space: pre;&quot;&gt;&#x9;&lt;/span&gt;: string" style="text;strokeColor=none;fillColor=none;align=left;verticalAlign=top;spacingLeft=4;spacingRight=4;overflow=hidden;rotatable=0;points=[[0,0.5],[1,0.5]];portConstraint=eastwest;whiteSpace=wrap;html=1;" parent="eWJayuSbDQP7VDXV3mLt-20" vertex="1">
          <mxGeometry y="78" width="160" height="26" as="geometry" />
        </mxCell>
        <mxCell id="eWJayuSbDQP7VDXV3mLt-24" value="- stok&lt;span style=&quot;white-space: pre;&quot;&gt;&#x9;&lt;/span&gt;: int" style="text;strokeColor=none;fillColor=none;align=left;verticalAlign=top;spacingLeft=4;spacingRight=4;overflow=hidden;rotatable=0;points=[[0,0.5],[1,0.5]];portConstraint=eastwest;whiteSpace=wrap;html=1;" parent="eWJayuSbDQP7VDXV3mLt-20" vertex="1">
          <mxGeometry y="104" width="160" height="26" as="geometry" />
        </mxCell>
        <mxCell id="eWJayuSbDQP7VDXV3mLt-25" value="- harga&lt;span style=&quot;white-space: pre;&quot;&gt;&#x9;&lt;/span&gt;: float" style="text;strokeColor=none;fillColor=none;align=left;verticalAlign=top;spacingLeft=4;spacingRight=4;overflow=hidden;rotatable=0;points=[[0,0.5],[1,0.5]];portConstraint=eastwest;whiteSpace=wrap;html=1;" parent="eWJayuSbDQP7VDXV3mLt-20" vertex="1">
          <mxGeometry y="130" width="160" height="26" as="geometry" />
        </mxCell>
        <mxCell id="eWJayuSbDQP7VDXV3mLt-26" value="" style="line;strokeWidth=1;fillColor=none;align=left;verticalAlign=middle;spacingTop=-1;spacingLeft=3;spacingRight=3;rotatable=0;labelPosition=right;points=[];portConstraint=eastwest;strokeColor=inherit;" parent="eWJayuSbDQP7VDXV3mLt-20" vertex="1">
          <mxGeometry y="156" width="160" height="8" as="geometry" />
        </mxCell>
        <mxCell id="eWJayuSbDQP7VDXV3mLt-27" value="+ update_stok()" style="text;strokeColor=none;fillColor=none;align=left;verticalAlign=top;spacingLeft=4;spacingRight=4;overflow=hidden;rotatable=0;points=[[0,0.5],[1,0.5]];portConstraint=eastwest;whiteSpace=wrap;html=1;" parent="eWJayuSbDQP7VDXV3mLt-20" vertex="1">
          <mxGeometry y="164" width="160" height="26" as="geometry" />
        </mxCell>
        <mxCell id="eWJayuSbDQP7VDXV3mLt-29" value="Transaksi pengguna" style="swimlane;fontStyle=1;align=center;verticalAlign=top;childLayout=stackLayout;horizontal=1;startSize=26;horizontalStack=0;resizeParent=1;resizeParentMax=0;resizeLast=0;collapsible=1;marginBottom=0;whiteSpace=wrap;html=1;" parent="1" vertex="1">
          <mxGeometry x="470" y="660" width="160" height="242" as="geometry" />
        </mxCell>
        <mxCell id="eWJayuSbDQP7VDXV3mLt-30" value="- idTransaksi : int" style="text;strokeColor=none;fillColor=none;align=left;verticalAlign=top;spacingLeft=4;spacingRight=4;overflow=hidden;rotatable=0;points=[[0,0.5],[1,0.5]];portConstraint=eastwest;whiteSpace=wrap;html=1;" parent="eWJayuSbDQP7VDXV3mLt-29" vertex="1">
          <mxGeometry y="26" width="160" height="26" as="geometry" />
        </mxCell>
        <mxCell id="eWJayuSbDQP7VDXV3mLt-31" value="- idUser&lt;span style=&quot;white-space: pre;&quot;&gt;&#x9;&lt;/span&gt;: int" style="text;strokeColor=none;fillColor=none;align=left;verticalAlign=top;spacingLeft=4;spacingRight=4;overflow=hidden;rotatable=0;points=[[0,0.5],[1,0.5]];portConstraint=eastwest;whiteSpace=wrap;html=1;" parent="eWJayuSbDQP7VDXV3mLt-29" vertex="1">
          <mxGeometry y="52" width="160" height="26" as="geometry" />
        </mxCell>
        <mxCell id="eWJayuSbDQP7VDXV3mLt-38" value="- idObat&lt;span style=&quot;white-space: pre;&quot;&gt;&#x9;&lt;/span&gt;: int" style="text;strokeColor=none;fillColor=none;align=left;verticalAlign=top;spacingLeft=4;spacingRight=4;overflow=hidden;rotatable=0;points=[[0,0.5],[1,0.5]];portConstraint=eastwest;whiteSpace=wrap;html=1;" parent="eWJayuSbDQP7VDXV3mLt-29" vertex="1">
          <mxGeometry y="78" width="160" height="26" as="geometry" />
        </mxCell>
        <mxCell id="eWJayuSbDQP7VDXV3mLt-32" value="- jumlah&lt;span style=&quot;white-space: pre;&quot;&gt;&#x9;&lt;/span&gt;: int" style="text;strokeColor=none;fillColor=none;align=left;verticalAlign=top;spacingLeft=4;spacingRight=4;overflow=hidden;rotatable=0;points=[[0,0.5],[1,0.5]];portConstraint=eastwest;whiteSpace=wrap;html=1;" parent="eWJayuSbDQP7VDXV3mLt-29" vertex="1">
          <mxGeometry y="104" width="160" height="26" as="geometry" />
        </mxCell>
        <mxCell id="eWJayuSbDQP7VDXV3mLt-33" value="- tanggal&lt;span style=&quot;white-space: pre;&quot;&gt;&#x9;&lt;/span&gt;: date" style="text;strokeColor=none;fillColor=none;align=left;verticalAlign=top;spacingLeft=4;spacingRight=4;overflow=hidden;rotatable=0;points=[[0,0.5],[1,0.5]];portConstraint=eastwest;whiteSpace=wrap;html=1;" parent="eWJayuSbDQP7VDXV3mLt-29" vertex="1">
          <mxGeometry y="130" width="160" height="26" as="geometry" />
        </mxCell>
        <mxCell id="eWJayuSbDQP7VDXV3mLt-34" value="- tujuan&lt;span style=&quot;white-space: pre;&quot;&gt;&#x9;&lt;/span&gt;: string" style="text;strokeColor=none;fillColor=none;align=left;verticalAlign=top;spacingLeft=4;spacingRight=4;overflow=hidden;rotatable=0;points=[[0,0.5],[1,0.5]];portConstraint=eastwest;whiteSpace=wrap;html=1;" parent="eWJayuSbDQP7VDXV3mLt-29" vertex="1">
          <mxGeometry y="156" width="160" height="26" as="geometry" />
        </mxCell>
        <mxCell id="eWJayuSbDQP7VDXV3mLt-35" value="" style="line;strokeWidth=1;fillColor=none;align=left;verticalAlign=middle;spacingTop=-1;spacingLeft=3;spacingRight=3;rotatable=0;labelPosition=right;points=[];portConstraint=eastwest;strokeColor=inherit;" parent="eWJayuSbDQP7VDXV3mLt-29" vertex="1">
          <mxGeometry y="182" width="160" height="8" as="geometry" />
        </mxCell>
        <mxCell id="eWJayuSbDQP7VDXV3mLt-36" value="+ catat_transaksi()" style="text;strokeColor=none;fillColor=none;align=left;verticalAlign=top;spacingLeft=4;spacingRight=4;overflow=hidden;rotatable=0;points=[[0,0.5],[1,0.5]];portConstraint=eastwest;whiteSpace=wrap;html=1;" parent="eWJayuSbDQP7VDXV3mLt-29" vertex="1">
          <mxGeometry y="190" width="160" height="26" as="geometry" />
        </mxCell>
        <mxCell id="eWJayuSbDQP7VDXV3mLt-37" value="+ lihat_detail()" style="text;strokeColor=none;fillColor=none;align=left;verticalAlign=top;spacingLeft=4;spacingRight=4;overflow=hidden;rotatable=0;points=[[0,0.5],[1,0.5]];portConstraint=eastwest;whiteSpace=wrap;html=1;" parent="eWJayuSbDQP7VDXV3mLt-29" vertex="1">
          <mxGeometry y="216" width="160" height="26" as="geometry" />
        </mxCell>
        <mxCell id="eWJayuSbDQP7VDXV3mLt-39" style="edgeStyle=orthogonalEdgeStyle;rounded=0;orthogonalLoop=1;jettySize=auto;html=1;exitX=1;exitY=0.5;exitDx=0;exitDy=0;endArrow=none;startFill=0;" parent="1" source="eWJayuSbDQP7VDXV3mLt-12" target="eWJayuSbDQP7VDXV3mLt-31" edge="1">
          <mxGeometry relative="1" as="geometry">
            <Array as="points">
              <mxPoint x="840" y="429" />
              <mxPoint x="840" y="725" />
            </Array>
          </mxGeometry>
        </mxCell>
        <mxCell id="eWJayuSbDQP7VDXV3mLt-40" style="edgeStyle=orthogonalEdgeStyle;rounded=0;orthogonalLoop=1;jettySize=auto;html=1;exitX=0;exitY=0.5;exitDx=0;exitDy=0;endArrow=none;startFill=0;" parent="1" source="eWJayuSbDQP7VDXV3mLt-21" target="eWJayuSbDQP7VDXV3mLt-38" edge="1">
          <mxGeometry relative="1" as="geometry">
            <Array as="points">
              <mxPoint x="420" y="480" />
              <mxPoint x="420" y="751" />
            </Array>
          </mxGeometry>
        </mxCell>
        <mxCell id="eWJayuSbDQP7VDXV3mLt-41" value="1..*" style="text;html=1;align=center;verticalAlign=middle;resizable=0;points=[];autosize=1;strokeColor=none;fillColor=none;labelBackgroundColor=default;" parent="1" vertex="1">
          <mxGeometry x="800" y="400" width="40" height="30" as="geometry" />
        </mxCell>
        <mxCell id="eWJayuSbDQP7VDXV3mLt-42" value="*..1" style="text;html=1;align=center;verticalAlign=middle;resizable=0;points=[];autosize=1;strokeColor=none;fillColor=none;labelBackgroundColor=default;" parent="1" vertex="1">
          <mxGeometry x="430" y="720" width="40" height="30" as="geometry" />
        </mxCell>
        <mxCell id="eWJayuSbDQP7VDXV3mLt-43" value="*..1" style="text;html=1;align=center;verticalAlign=middle;resizable=0;points=[];autosize=1;strokeColor=none;fillColor=none;labelBackgroundColor=default;" parent="1" vertex="1">
          <mxGeometry x="630" y="700" width="40" height="30" as="geometry" />
        </mxCell>
        <mxCell id="eWJayuSbDQP7VDXV3mLt-45" value="1..*" style="text;html=1;align=center;verticalAlign=middle;resizable=0;points=[];autosize=1;strokeColor=none;fillColor=none;labelBackgroundColor=light-dark(#ffffff, #ededed);" parent="1" vertex="1">
          <mxGeometry x="420" y="450" width="40" height="30" as="geometry" />
        </mxCell>
        <mxCell id="IWQQanEH7RPdTNTI_Egl-1" value="Transaksi" style="shape=umlBoundary;whiteSpace=wrap;html=1;" vertex="1" parent="1">
          <mxGeometry x="1163" y="295.5" width="90" height="72" as="geometry" />
        </mxCell>
        <mxCell id="IWQQanEH7RPdTNTI_Egl-2" value="Form transaksi" style="shape=umlBoundary;whiteSpace=wrap;html=1;" vertex="1" parent="1">
          <mxGeometry x="1273" y="295.5" width="90" height="72" as="geometry" />
        </mxCell>
        <mxCell id="IWQQanEH7RPdTNTI_Egl-3" value="Database" style="ellipse;shape=umlEntity;whiteSpace=wrap;html=1;" vertex="1" parent="1">
          <mxGeometry x="1406" y="295.5" width="70" height="70" as="geometry" />
        </mxCell>
        <mxCell id="IWQQanEH7RPdTNTI_Egl-4" value="Admin/Apoteker" style="shape=umlActor;verticalLabelPosition=bottom;verticalAlign=top;html=1;" vertex="1" parent="1">
          <mxGeometry x="963" y="287.5" width="40" height="70" as="geometry" />
        </mxCell>
        <mxCell id="IWQQanEH7RPdTNTI_Egl-5" value="" style="endArrow=none;dashed=1;html=1;rounded=0;" edge="1" parent="1" source="IWQQanEH7RPdTNTI_Egl-12">
          <mxGeometry width="50" height="50" relative="1" as="geometry">
            <mxPoint x="983" y="687.5" as="sourcePoint" />
            <mxPoint x="983" y="387.5" as="targetPoint" />
          </mxGeometry>
        </mxCell>
        <mxCell id="IWQQanEH7RPdTNTI_Egl-6" value="" style="endArrow=none;dashed=1;html=1;rounded=0;" edge="1" parent="1" source="IWQQanEH7RPdTNTI_Egl-14">
          <mxGeometry width="50" height="50" relative="1" as="geometry">
            <mxPoint x="1093" y="687.5" as="sourcePoint" />
            <mxPoint x="1093" y="387.5" as="targetPoint" />
          </mxGeometry>
        </mxCell>
        <mxCell id="IWQQanEH7RPdTNTI_Egl-7" value="" style="endArrow=none;dashed=1;html=1;rounded=0;" edge="1" parent="1" source="IWQQanEH7RPdTNTI_Egl-17">
          <mxGeometry width="50" height="50" relative="1" as="geometry">
            <mxPoint x="1213" y="687.5" as="sourcePoint" />
            <mxPoint x="1213" y="387.5" as="targetPoint" />
          </mxGeometry>
        </mxCell>
        <mxCell id="IWQQanEH7RPdTNTI_Egl-9" value="Menu Dashboard" style="shape=umlBoundary;whiteSpace=wrap;html=1;" vertex="1" parent="1">
          <mxGeometry x="1043" y="295.5" width="90" height="72" as="geometry" />
        </mxCell>
        <mxCell id="IWQQanEH7RPdTNTI_Egl-10" value="" style="endArrow=none;dashed=1;html=1;rounded=0;" edge="1" parent="1" source="IWQQanEH7RPdTNTI_Egl-33">
          <mxGeometry width="50" height="50" relative="1" as="geometry">
            <mxPoint x="1440.5500000000002" y="693.5" as="sourcePoint" />
            <mxPoint x="1440.5500000000002" y="393.5" as="targetPoint" />
          </mxGeometry>
        </mxCell>
        <mxCell id="IWQQanEH7RPdTNTI_Egl-11" value="" style="endArrow=none;dashed=1;html=1;rounded=0;" edge="1" parent="1" target="IWQQanEH7RPdTNTI_Egl-12">
          <mxGeometry width="50" height="50" relative="1" as="geometry">
            <mxPoint x="983" y="727.5" as="sourcePoint" />
            <mxPoint x="983" y="387.5" as="targetPoint" />
          </mxGeometry>
        </mxCell>
        <mxCell id="IWQQanEH7RPdTNTI_Egl-12" value="" style="html=1;points=[[0,0,0,0,5],[0,1,0,0,-5],[1,0,0,0,5],[1,1,0,0,-5]];perimeter=orthogonalPerimeter;outlineConnect=0;targetShapes=umlLifeline;portConstraint=eastwest;newEdgeStyle={&quot;curved&quot;:0,&quot;rounded&quot;:0};" vertex="1" parent="1">
          <mxGeometry x="977" y="427.5" width="10" height="290" as="geometry" />
        </mxCell>
        <mxCell id="IWQQanEH7RPdTNTI_Egl-13" value="" style="endArrow=none;dashed=1;html=1;rounded=0;" edge="1" parent="1" target="IWQQanEH7RPdTNTI_Egl-14">
          <mxGeometry width="50" height="50" relative="1" as="geometry">
            <mxPoint x="1093" y="727.5" as="sourcePoint" />
            <mxPoint x="1093" y="387.5" as="targetPoint" />
          </mxGeometry>
        </mxCell>
        <mxCell id="IWQQanEH7RPdTNTI_Egl-14" value="" style="html=1;points=[[0,0,0,0,5],[0,1,0,0,-5],[1,0,0,0,5],[1,1,0,0,-5]];perimeter=orthogonalPerimeter;outlineConnect=0;targetShapes=umlLifeline;portConstraint=eastwest;newEdgeStyle={&quot;curved&quot;:0,&quot;rounded&quot;:0};" vertex="1" parent="1">
          <mxGeometry x="1087" y="427.5" width="10" height="30" as="geometry" />
        </mxCell>
        <mxCell id="IWQQanEH7RPdTNTI_Egl-15" value="Memilih menu&lt;br&gt;transaksi" style="html=1;verticalAlign=bottom;endArrow=block;curved=0;rounded=0;" edge="1" parent="1">
          <mxGeometry width="80" relative="1" as="geometry">
            <mxPoint x="987" y="427.5" as="sourcePoint" />
            <mxPoint x="1087" y="427.5" as="targetPoint" />
          </mxGeometry>
        </mxCell>
        <mxCell id="IWQQanEH7RPdTNTI_Egl-16" value="" style="endArrow=none;dashed=1;html=1;rounded=0;" edge="1" parent="1" source="IWQQanEH7RPdTNTI_Egl-25" target="IWQQanEH7RPdTNTI_Egl-17">
          <mxGeometry width="50" height="50" relative="1" as="geometry">
            <mxPoint x="1213" y="687.5" as="sourcePoint" />
            <mxPoint x="1213" y="387.5" as="targetPoint" />
          </mxGeometry>
        </mxCell>
        <mxCell id="IWQQanEH7RPdTNTI_Egl-17" value="" style="html=1;points=[[0,0,0,0,5],[0,1,0,0,-5],[1,0,0,0,5],[1,1,0,0,-5]];perimeter=orthogonalPerimeter;outlineConnect=0;targetShapes=umlLifeline;portConstraint=eastwest;newEdgeStyle={&quot;curved&quot;:0,&quot;rounded&quot;:0};" vertex="1" parent="1">
          <mxGeometry x="1208" y="452.5" width="10" height="25" as="geometry" />
        </mxCell>
        <mxCell id="IWQQanEH7RPdTNTI_Egl-18" value="" style="endArrow=none;dashed=1;html=1;rounded=0;" edge="1" parent="1">
          <mxGeometry width="50" height="50" relative="1" as="geometry">
            <mxPoint x="1320" y="720" as="sourcePoint" />
            <mxPoint x="1321" y="387.5" as="targetPoint" />
          </mxGeometry>
        </mxCell>
        <mxCell id="IWQQanEH7RPdTNTI_Egl-22" value="Pilih obat, jumlah, dan input data penerima" style="html=1;verticalAlign=bottom;endArrow=block;curved=0;rounded=0;entryX=0;entryY=0;entryDx=0;entryDy=5;entryPerimeter=0;" edge="1" parent="1" target="IWQQanEH7RPdTNTI_Egl-25">
          <mxGeometry width="80" relative="1" as="geometry">
            <mxPoint x="987" y="511.66999999999996" as="sourcePoint" />
            <mxPoint x="1098" y="511.66999999999996" as="targetPoint" />
          </mxGeometry>
        </mxCell>
        <mxCell id="IWQQanEH7RPdTNTI_Egl-23" value="Tampilkan ( )" style="html=1;verticalAlign=bottom;endArrow=block;curved=0;rounded=0;" edge="1" parent="1" target="IWQQanEH7RPdTNTI_Egl-17">
          <mxGeometry x="-0.003" width="80" relative="1" as="geometry">
            <mxPoint x="1096" y="452.5" as="sourcePoint" />
            <mxPoint x="1198" y="452.5" as="targetPoint" />
            <mxPoint as="offset" />
          </mxGeometry>
        </mxCell>
        <mxCell id="IWQQanEH7RPdTNTI_Egl-24" value="" style="endArrow=none;dashed=1;html=1;rounded=0;" edge="1" parent="1" target="IWQQanEH7RPdTNTI_Egl-25" source="IWQQanEH7RPdTNTI_Egl-40">
          <mxGeometry width="50" height="50" relative="1" as="geometry">
            <mxPoint x="1213" y="727.5" as="sourcePoint" />
            <mxPoint x="1213" y="477.5" as="targetPoint" />
          </mxGeometry>
        </mxCell>
        <mxCell id="IWQQanEH7RPdTNTI_Egl-25" value="" style="html=1;points=[[0,0,0,0,5],[0,1,0,0,-5],[1,0,0,0,5],[1,1,0,0,-5]];perimeter=orthogonalPerimeter;outlineConnect=0;targetShapes=umlLifeline;portConstraint=eastwest;newEdgeStyle={&quot;curved&quot;:0,&quot;rounded&quot;:0};" vertex="1" parent="1">
          <mxGeometry x="1208" y="507.5" width="10" height="30" as="geometry" />
        </mxCell>
        <mxCell id="IWQQanEH7RPdTNTI_Egl-26" value="" style="html=1;points=[[0,0,0,0,5],[0,1,0,0,-5],[1,0,0,0,5],[1,1,0,0,-5]];perimeter=orthogonalPerimeter;outlineConnect=0;targetShapes=umlLifeline;portConstraint=eastwest;newEdgeStyle={&quot;curved&quot;:0,&quot;rounded&quot;:0};" vertex="1" parent="1">
          <mxGeometry x="1315" y="527.5" width="10" height="62.5" as="geometry" />
        </mxCell>
        <mxCell id="IWQQanEH7RPdTNTI_Egl-27" value="" style="html=1;verticalAlign=bottom;endArrow=block;curved=0;rounded=0;" edge="1" parent="1" source="IWQQanEH7RPdTNTI_Egl-25" target="IWQQanEH7RPdTNTI_Egl-26">
          <mxGeometry x="-0.003" width="80" relative="1" as="geometry">
            <mxPoint x="1223" y="527.5" as="sourcePoint" />
            <mxPoint x="1305" y="527.5" as="targetPoint" />
            <mxPoint as="offset" />
          </mxGeometry>
        </mxCell>
        <mxCell id="IWQQanEH7RPdTNTI_Egl-30" value="Menyimpan data transaksi" style="html=1;verticalAlign=bottom;endArrow=block;curved=0;rounded=0;entryX=0;entryY=0;entryDx=0;entryDy=5;entryPerimeter=0;" edge="1" parent="1" source="IWQQanEH7RPdTNTI_Egl-12" target="IWQQanEH7RPdTNTI_Egl-31">
          <mxGeometry x="0.0021" width="80" relative="1" as="geometry">
            <mxPoint x="1099" y="632.5" as="sourcePoint" />
            <mxPoint x="1317" y="631.67" as="targetPoint" />
            <mxPoint as="offset" />
          </mxGeometry>
        </mxCell>
        <mxCell id="IWQQanEH7RPdTNTI_Egl-31" value="" style="html=1;points=[[0,0,0,0,5],[0,1,0,0,-5],[1,0,0,0,5],[1,1,0,0,-5]];perimeter=orthogonalPerimeter;outlineConnect=0;targetShapes=umlLifeline;portConstraint=eastwest;newEdgeStyle={&quot;curved&quot;:0,&quot;rounded&quot;:0};" vertex="1" parent="1">
          <mxGeometry x="1315" y="633.5" width="10" height="30" as="geometry" />
        </mxCell>
        <mxCell id="IWQQanEH7RPdTNTI_Egl-32" value="" style="endArrow=none;dashed=1;html=1;rounded=0;" edge="1" parent="1" target="IWQQanEH7RPdTNTI_Egl-33">
          <mxGeometry width="50" height="50" relative="1" as="geometry">
            <mxPoint x="1441" y="733.5" as="sourcePoint" />
            <mxPoint x="1440.5500000000002" y="393.5" as="targetPoint" />
          </mxGeometry>
        </mxCell>
        <mxCell id="IWQQanEH7RPdTNTI_Egl-33" value="" style="html=1;points=[[0,0,0,0,5],[0,1,0,0,-5],[1,0,0,0,5],[1,1,0,0,-5]];perimeter=orthogonalPerimeter;outlineConnect=0;targetShapes=umlLifeline;portConstraint=eastwest;newEdgeStyle={&quot;curved&quot;:0,&quot;rounded&quot;:0};" vertex="1" parent="1">
          <mxGeometry x="1436" y="633.5" width="10" height="90" as="geometry" />
        </mxCell>
        <mxCell id="IWQQanEH7RPdTNTI_Egl-34" value="Menyimpan ke&amp;nbsp;&lt;div&gt;database&lt;/div&gt;" style="html=1;verticalAlign=bottom;endArrow=block;curved=0;rounded=0;" edge="1" parent="1" target="IWQQanEH7RPdTNTI_Egl-33">
          <mxGeometry x="0.0052" width="80" relative="1" as="geometry">
            <mxPoint x="1325" y="647.97" as="sourcePoint" />
            <mxPoint x="1427" y="647.97" as="targetPoint" />
            <mxPoint as="offset" />
          </mxGeometry>
        </mxCell>
        <mxCell id="IWQQanEH7RPdTNTI_Egl-37" value="Menampilkan nomor transaksi dan ringkasan" style="html=1;verticalAlign=bottom;endArrow=block;curved=0;rounded=0;" edge="1" parent="1" source="IWQQanEH7RPdTNTI_Egl-33" target="IWQQanEH7RPdTNTI_Egl-40">
          <mxGeometry x="0.0052" width="80" relative="1" as="geometry">
            <mxPoint x="1437" y="701.97" as="sourcePoint" />
            <mxPoint x="1326" y="702.44" as="targetPoint" />
            <mxPoint as="offset" />
            <Array as="points">
              <mxPoint x="1380" y="700" />
            </Array>
          </mxGeometry>
        </mxCell>
        <mxCell id="IWQQanEH7RPdTNTI_Egl-38" value="Squence Pencatatan transaksi" style="text;align=center;fontStyle=1;verticalAlign=middle;spacingLeft=3;spacingRight=3;strokeColor=none;rotatable=0;points=[[0,0.5],[1,0.5]];portConstraint=eastwest;html=1;" vertex="1" parent="1">
          <mxGeometry x="1214" y="227.5" width="80" height="26" as="geometry" />
        </mxCell>
        <mxCell id="IWQQanEH7RPdTNTI_Egl-41" value="" style="endArrow=none;dashed=1;html=1;rounded=0;" edge="1" parent="1" target="IWQQanEH7RPdTNTI_Egl-40">
          <mxGeometry width="50" height="50" relative="1" as="geometry">
            <mxPoint x="1213" y="727.5" as="sourcePoint" />
            <mxPoint x="1213" y="538" as="targetPoint" />
          </mxGeometry>
        </mxCell>
        <mxCell id="IWQQanEH7RPdTNTI_Egl-40" value="" style="html=1;points=[[0,0,0,0,5],[0,1,0,0,-5],[1,0,0,0,5],[1,1,0,0,-5]];perimeter=orthogonalPerimeter;outlineConnect=0;targetShapes=umlLifeline;portConstraint=eastwest;newEdgeStyle={&quot;curved&quot;:0,&quot;rounded&quot;:0};" vertex="1" parent="1">
          <mxGeometry x="1208" y="684" width="10" height="30" as="geometry" />
        </mxCell>
        <mxCell id="IWQQanEH7RPdTNTI_Egl-42" style="edgeStyle=orthogonalEdgeStyle;rounded=0;orthogonalLoop=1;jettySize=auto;html=1;curved=0;" edge="1" parent="1" source="IWQQanEH7RPdTNTI_Egl-26" target="IWQQanEH7RPdTNTI_Egl-26">
          <mxGeometry relative="1" as="geometry" />
        </mxCell>
      </root>
    </mxGraphModel>
  </diagram>
</mxfile>
